Coordinates
version=1
nRows=4
nColumns=107
inDegrees=yes

Units are S.I. units (second, meters, Newtons, ...)
If the header above contains a line with 'inDegrees', this indicates whether rotational values are in degrees (yes) or radians (no).

endheader
time	sternoclavicular_r2	sternoclavicular_r3	unrotscap_r3	unrotscap_r2	acromioclavicular_r2	acromioclavicular_r3	acromioclavicular_r1	unrothum_r1	unrothum_r3	unrothum_r2	elv_angle	shoulder_elv	shoulder1_r2	shoulder_rot	elbow_flexion	pro_sup	deviation	flexion	proximal_distal_r1	proximal_distal_r3	cmc_flexion	cmc_abduction	mp_flexion	ip_flexion	mcp2_flexion	mcp2_abduction	pm2_flexion	md2_flexion	mcp3_flexion	mcp3_abduction	pm3_flexion	md3_flexion	mcp4_flexion	mcp4_abduction	pm4_flexion	md4_flexion	mcp5_flexion	mcp5_abduction	pm5_flexion	md5_flexion	bicpt_tx	bicpt_ty	bicpt_tz	bicpt2_tx	bicpt2_ty	bicpt2_tz	ptpt_tx	ptpt_ty	ptpt_tz	FCUpt_tx	FCUpt_ty	FCUpt_tz	EDCpt_tx	EDCpt_ty	EDCpt_tz	APLpt_tx	APLpt_ty	APLpt_tz	FPLpt_tx	FPLpt_ty	FPLpt_tz	FPLpt2_tx	FPLpt2_ty	FPLpt2_tz	PEC1pt2_tx	PEC1pt2_ty	PEC1pt2_tz	PEC1pt3_tx	PEC1pt3_ty	PEC1pt3_tz	PEC2pt2_tx	PEC2pt2_ty	PEC2pt2_tz	PEC2pt3_tx	PEC2pt3_ty	PEC2pt3_tz	PEC3pt2_tx	PEC3pt2_ty	PEC3pt2_tz	PEC3pt3_tx	PEC3pt3_ty	PEC3pt3_tz	DELT2pt2a_tx	DELT2pt2a_ty	DELT2pt2a_tz	DELT2pt2_tx	DELT2pt2_ty	DELT2pt2_tz	LAT1pt2_tx	LAT1pt2_ty	LAT1pt2_tz	LAT1pt3_tx	LAT1pt3_ty	LAT1pt3_tz	LAT2pt2_tx	LAT2pt2_ty	LAT2pt2_tz	LAT2pt3_tx	LAT2pt3_ty	LAT2pt3_tz	LAT3pt2_tx	LAT3pt2_ty	LAT3pt2_tz	LAT3pt3_tx	LAT3pt3_ty	LAT3pt3_tz
      0.00000000	     -0.31620364	      0.13392894	     -0.13392894	      0.31620364	     -0.06402481	      0.51742595	      0.23257940	     -0.23257940	     -0.51742595	      0.06402481	    101.36725694	     74.86402242	     -1.76919239	    -35.32092400	     30.67553468	     84.63873887	      0.34846606	     -0.45456840	      0.37352781	     -0.22728420	     39.74842803	    -21.72358038	      9.39426723	      2.59133400	     88.58874664	      7.90341644	     82.40364024	     68.45787808	     89.03789014	     -2.25271043	     84.87964094	     53.60107096	     77.16258681	    -12.22863445	    100.92114637	     36.05427115	     66.65022119	    -13.80615601	    100.00454473	      5.64537991	      0.00091465	     -0.03111589	     -0.00486632	      0.01437850	     -0.01853316	     -0.00130786	      0.00129615	     -0.06894384	     -0.00686810	      0.01258191	     -0.18228357	      0.00004700	     -0.01015662	      0.00350360	     -0.00071401	      0.00029204	      0.00011682	      0.00058409	      0.00037382	      0.00112145	      0.00063081	     -0.00001077	     -0.00011597	     -0.00013916	      0.00245388	      0.00860937	      0.00598913	     -0.00802709	      0.01938148	     -0.01838329	      0.00245388	      0.00860937	      0.00598913	      0.00054069	      0.01796738	     -0.00944119	      0.00389831	      0.00478756	      0.01584503	      0.00000000	      0.00749365	      0.00000000	     -0.00702891	     -0.03248269	     -0.00617721	      0.02104747	     -0.00094248	     -0.01025264	     -0.00087341	      0.01464009	     -0.00598913	      0.00241229	      0.02112831	     -0.01746829	     -0.00586435	      0.01268530	     -0.00536526	     -0.01222780	      0.02678471	     -0.02998723	     -0.02295832	      0.01418259	     -0.00719527	     -0.01522236	      0.03094382	     -0.03747363
      0.03333333	     -0.31631733	      0.13397709	     -0.13397709	      0.31631733	     -0.06404783	      0.51761199	      0.23266303	     -0.23266303	     -0.51761199	      0.06404783	    101.33134205	     74.89093999	     -1.76856555	    -35.34084991	     30.65762149	     84.63761946	      0.34847161	     -0.45454780	      0.37353171	     -0.22727390	     39.74797752	    -21.72380974	      9.39397932	      2.59127109	     88.58601834	      7.90373014	     82.40385490	     68.45857470	     89.03575169	     -2.25297427	     84.87968311	     53.60139159	     77.16118499	    -12.22903250	    100.92112327	     36.05439635	     66.65175754	    -13.80613135	    100.00430369	      5.64528797	      0.00091406	     -0.03111383	     -0.00486599	      0.01437861	     -0.01852829	     -0.00130804	      0.00129623	     -0.06894379	     -0.00686801	      0.01258178	     -0.18228361	      0.00004697	     -0.01015649	      0.00350354	     -0.00071398	      0.00029204	      0.00011681	      0.00058407	      0.00037381	      0.00112142	      0.00063080	     -0.00001077	     -0.00011598	     -0.00013917	      0.00245476	      0.00861247	      0.00599128	     -0.00802998	      0.01938845	     -0.01838990	      0.00245476	      0.00861247	      0.00599128	      0.00054088	      0.01797384	     -0.00944459	      0.00389934	      0.00478928	      0.01584760	      0.00000000	      0.00749908	      0.00000000	     -0.00703143	     -0.03249437	     -0.00618172	      0.02105484	     -0.00094319	     -0.01026356	     -0.00087373	      0.01464535	     -0.00599128	      0.00241315	      0.02113591	     -0.01747457	     -0.00586646	      0.01268986	     -0.00536719	     -0.01223220	      0.02679434	     -0.02999801	     -0.02296657	      0.01418768	     -0.00719786	     -0.01522784	      0.03095495	     -0.03748711
      0.06666667	     -0.31577584	      0.13374774	     -0.13374774	      0.31577584	     -0.06393819	      0.51672592	      0.23226475	     -0.23226475	     -0.51672592	      0.06393819	    101.62157230	     74.76273798	     -1.77363103	    -36.35523918	     30.45926443	     85.16674824	      0.34698021	     -0.46878413	      0.37235663	     -0.23439207	     39.58748913	    -21.70848233	      9.93589152	      2.40040634	     88.15978737	      8.23499951	     82.39594152	     72.47513811	     88.82853058	     -2.37227824	     84.76338644	     56.66149461	     77.11144381	    -12.34461152	    100.50843585	     38.55033627	     67.52989376	    -13.79548094	     99.83094488	      5.56245458	      0.00090750	     -0.03109110	     -0.00486232	      0.01432525	     -0.01847441	     -0.00121825	      0.00125714	     -0.06896907	     -0.00691064	      0.01264239	     -0.18226585	      0.00006111	     -0.01021999	      0.00353239	     -0.00073065	      0.00029561	      0.00011824	      0.00059122	      0.00037838	      0.00113515	      0.00063852	     -0.00001095	     -0.00011904	     -0.00014285	      0.00245056	      0.00859772	      0.00598102	     -0.00801623	      0.01935526	     -0.01835842	      0.00245056	      0.00859772	      0.00598102	      0.00053995	      0.01794307	     -0.00942842	      0.00389442	      0.00478108	      0.01583532	      0.00000000	      0.00747326	      0.00000000	     -0.00701940	     -0.03243875	     -0.00616027	      0.02142520	     -0.00097931	     -0.01082327	     -0.00087223	      0.01462028	     -0.00598102	      0.00240902	      0.02109972	     -0.01744465	     -0.00585642	      0.01266814	     -0.00535800	     -0.01221126	      0.02674847	     -0.02994666	     -0.02292726	      0.01416340	     -0.00718554	     -0.01520177	      0.03090196	     -0.03742294
      0.10000000	     -0.31558246	      0.13366584	     -0.13366584	      0.31558246	     -0.06389903	      0.51640948	      0.23212251	     -0.23212251	     -0.51640948	      0.06389903	    101.82020545	     74.71695303	     -1.77709783	    -37.01809047	     30.25143382	     85.26284146	      0.33793004	     -0.49704295	      0.36514821	     -0.24852148	     39.66010941	    -21.63199564	     10.25257701	      2.41573397	     88.23599523	      8.23554152	     82.49583914	     73.15168762	     88.95203841	     -2.51378083	     84.73601611	     57.01019796	     77.06980787	    -12.38888830	    100.89146908	     38.48451519	     68.10766582	    -13.79808109	     99.83494337	      5.55537354	      0.00090062	     -0.03106728	     -0.00485849	      0.01431553	     -0.01841795	     -0.00120192	      0.00125004	     -0.06897366	     -0.00691838	      0.01265340	     -0.18226263	      0.00006368	     -0.01023152	      0.00353764	     -0.00073369	      0.00030171	      0.00012068	      0.00060341	      0.00038618	      0.00115855	      0.00065169	     -0.00001087	     -0.00011766	     -0.00014119	      0.00244906	      0.00859246	      0.00597736	     -0.00801132	      0.01934341	     -0.01834718	      0.00244906	      0.00859246	      0.00597736	      0.00053962	      0.01793208	     -0.00942265	      0.00389266	      0.00477816	      0.01583093	      0.00000000	      0.00746404	      0.00000000	     -0.00701510	     -0.03241888	     -0.00615262	      0.02165993	     -0.00100304	     -0.01119439	     -0.00087170	      0.01461133	     -0.00597736	      0.00240755	      0.02108680	     -0.01743397	     -0.00585283	      0.01266038	     -0.00535472	     -0.01220378	      0.02673209	     -0.02992832	     -0.02291322	      0.01415472	     -0.00718114	     -0.01519246	      0.03088303	     -0.03740002
